<?xml version="1.0" encoding="UTF-8" standalone="no"?>
<!-- Created with Inkscape (http://www.inkscape.org/) -->

<svg
   xmlns:dc="http://purl.org/dc/elements/1.1/"
   xmlns:cc="http://creativecommons.org/ns#"
   xmlns:rdf="http://www.w3.org/1999/02/22-rdf-syntax-ns#"
   xmlns:svg="http://www.w3.org/2000/svg"
   xmlns="http://www.w3.org/2000/svg"
   xmlns:sodipodi="http://sodipodi.sourceforge.net/DTD/sodipodi-0.dtd"
   xmlns:inkscape="http://www.inkscape.org/namespaces/inkscape"
   width="500"
   height="500"
   id="svg2"
   version="1.1"
   inkscape:version="0.48.5 r10040"
   sodipodi:docname="Followshows-Logo-Vector.png">
  <defs
     id="defs4" />
  <sodipodi:namedview
     id="base"
     pagecolor="#000000"
     bordercolor="#ffffff"
     borderopacity="1"
     inkscape:pageopacity="1"
     inkscape:pageshadow="2"
     inkscape:zoom="1.4142136"
     inkscape:cx="179.23751"
     inkscape:cy="214.87797"
     inkscape:document-units="px"
     inkscape:current-layer="layer1"
     showgrid="false"
     inkscape:window-width="1400"
     inkscape:window-height="1021"
     inkscape:window-x="1911"
     inkscape:window-y="-9"
     inkscape:window-maximized="1" />
  <metadata
     id="metadata7">
    <rdf:RDF>
      <cc:Work
         rdf:about="">
        <dc:format>image/svg+xml</dc:format>
        <dc:type
           rdf:resource="http://purl.org/dc/dcmitype/StillImage" />
        <dc:title></dc:title>
      </cc:Work>
    </rdf:RDF>
  </metadata>
  <g
     inkscape:label="Laag 1"
     inkscape:groupmode="layer"
     id="layer1"
     transform="translate(0,-552.36218)">
    <path
       style="fill:none;stroke:#ffffff;stroke-width:15;stroke-linecap:butt;stroke-linejoin:miter;stroke-miterlimit:4;stroke-opacity:1;stroke-dasharray:none"
       d="m 100,205 c 0.31924,-30.61829 22.63563,-49.974 50,-50 77.20656,-1.83825 139.59231,-3.32362 210,-5 20.02556,0 40,10.13347 40,40 l 0,120 c 0,25.64958 -6.29744,40 -40,40 L 229.40847,350 151.7589,425.76144 161.43559,350 140,350 c -25.32751,0 -40.428659,-16.16953 -40,-40 z"
       id="path3001"
       inkscape:connector-curvature="0"
       transform="translate(0,552.36218)"
       sodipodi:nodetypes="cccccccccscc" />
    <path
       sodipodi:type="arc"
       style="fill:#ffffff;stroke:#ffffff;stroke-width:15;stroke-linejoin:miter;stroke-miterlimit:4;stroke-dasharray:none"
       id="path3777"
       sodipodi:cx="271.0416"
       sodipodi:cy="112.38651"
       sodipodi:rx="6.8536582"
       sodipodi:ry="6.8536582"
       d="m 277.89525,112.38651 c 0,3.78517 -3.06848,6.85366 -6.85365,6.85366 -3.78518,0 -6.85366,-3.06849 -6.85366,-6.85366 0,-3.78517 3.06848,-6.85366 6.85366,-6.85366 3.78517,0 6.85365,3.06849 6.85365,6.85366 z"
       transform="translate(36.635006,548.29163)" />
    <path
       sodipodi:type="arc"
       style="fill:#ffffff;stroke:#ffffff;stroke-width:15;stroke-linejoin:miter;stroke-miterlimit:4;stroke-dasharray:none"
       id="path3779"
       sodipodi:cx="345.99728"
       sodipodi:cy="92.265945"
       sodipodi:rx="13.568521"
       sodipodi:ry="13.568521"
       d="m 359.5658,92.265945 c 0,7.493687 -6.07483,13.568525 -13.56852,13.568525 -7.49368,0 -13.56852,-6.074838 -13.56852,-13.568525 0,-7.493687 6.07484,-13.56852 13.56852,-13.56852 7.49369,0 13.56852,6.074833 13.56852,13.56852 z"
       transform="translate(37.991859,542.18579)" />
    <path
       style="fill:#f9f9f9;stroke:#f9f9f9;stroke-width:1px;stroke-linecap:butt;stroke-linejoin:miter;stroke-opacity:1"
       d="m 331.07191,143.1479 c -18.99593,-21.70964 -18.3175,-21.70964 -18.3175,-21.70964 l 5.59701,-3.90095 24.08412,27.98507 c -5.91939,1.7019 -5.77704,-4.01135 -11.36363,-2.37448 z"
       id="path3783"
       inkscape:connector-curvature="0"
       transform="translate(0,552.36218)"
       sodipodi:nodetypes="ccccc" />
    <path
       style="fill:#ffffff;stroke:#ffffff;stroke-width:1px;stroke-linecap:butt;stroke-linejoin:miter;stroke-opacity:1"
       d="m 342.43555,143.1479 28.6635,-49.016286 7.27566,4.026346 -28.21792,48.5323 z"
       id="path3785"
       inkscape:connector-curvature="0"
       transform="translate(0,552.36218)"
       sodipodi:nodetypes="ccccc" />
    <text
       xml:space="preserve"
       style="font-size:40px;font-style:normal;font-weight:normal;line-height:0%;letter-spacing:0px;word-spacing:0px;fill:#000000;fill-opacity:1;stroke:none;font-family:Sans"
       x="170.08913"
       y="876.48193"
       id="text3813"
       sodipodi:linespacing="0%"><tspan
         sodipodi:role="line"
         id="tspan3815"
         x="170.08913"
         y="876.48193"
         style="font-size:200px;font-weight:bold;fill:#ffffff"><tspan
           style="font-size:200px;font-weight:bold;line-height:0%;-inkscape-font-specification:Sans Bold"
           id="tspan3817">fs</tspan><tspan
           style="font-size:200px;font-style:normal;font-weight:bold;-inkscape-font-specification:Sans Bold"
           id="tspan3821" /></tspan></text>
  </g>
</svg>
